# Blender 4.4.3
# www.blender.org
mtllib JST4-Pin.mtl
o obj1
v -13.280849 1.282601 -2.009400
v -16.400249 2.640810 3.140809
v -17.294048 0.800002 -2.009400
v -16.400249 2.640810 2.859191
v -13.280849 0.800001 -2.009400
v -16.400249 2.359193 3.140809
v -17.294048 1.282602 -2.009400
v -16.400249 2.359193 2.859191
v -17.294048 1.282602 2.009400
v -16.100248 2.250001 3.250000
v -13.280849 1.282601 2.009400
v -16.100248 2.750001 3.250000
v -13.280849 0.800001 2.009400
v -16.100248 2.750001 2.750000
v -17.294048 0.800002 2.009400
v -16.100248 2.250001 2.750000
v -17.294048 1.282602 -4.447801
v -17.294048 0.800002 -4.930400
v -17.294048 1.943002 -4.447801
v -17.294048 1.943002 -4.930400
v -13.280849 1.282601 -4.447800
v -16.400249 2.640810 1.140809
v -15.770049 1.282602 -4.358900
v -16.400249 2.640810 0.859191
v -13.280849 1.282601 -4.358900
v -16.400249 2.359193 1.140809
v -13.280849 1.282601 -3.825500
v -16.400249 2.359193 0.859191
v -15.770049 1.282602 -3.825500
v -16.100248 2.250001 1.250000
v -15.770050 1.282602 3.825500
v -16.100248 2.750001 1.250000
v -13.280849 1.282601 3.825500
v -16.100248 2.750001 0.750000
v -13.280849 1.282601 4.358900
v -16.100248 2.250001 0.750000
v -15.770050 1.282602 4.358900
v -13.280849 1.282601 4.447800
v -17.294048 1.282602 4.447800
v -15.770049 0.800002 -3.825500
v -16.400249 2.640810 -0.859191
v -15.770049 0.800002 -4.358900
v -16.400249 2.640810 -1.140809
v -11.401249 0.800001 -4.930400
v -11.960049 0.800001 -3.825500
v -16.400249 2.359193 -0.859191
v -11.960049 0.800001 -2.174500
v -16.400249 2.359193 -1.140809
v -16.100248 2.250001 -0.750000
v -11.960049 0.800001 -1.825500
v -11.401249 0.800001 -1.825500
v -16.100248 2.750001 -0.750000
v -11.401249 0.800001 -2.174500
v -16.100248 2.750001 -1.250000
v -11.960049 0.800001 -0.174500
v -16.100248 2.250001 -1.250000
v -15.770050 0.800002 3.825500
v -17.294048 0.800002 4.930399
v -11.960049 0.800001 0.174500
v -15.770050 0.800002 4.358900
v -11.401249 0.800001 0.174500
v -16.400249 2.640810 -2.859191
v -16.400249 2.640810 -3.140809
v -11.401249 0.800001 -0.174500
v -11.960049 0.800001 1.825500
v -16.400249 2.359193 -2.859191
v -11.960049 0.800001 2.174500
v -16.400249 2.359193 -3.140809
v -11.401249 0.800001 1.825500
v -16.100248 2.250001 -3.250000
v -11.401249 0.800001 2.174500
v -16.100248 2.250001 -2.750000
v -16.100248 2.750001 -2.750000
v -11.960050 0.800001 3.825500
v -11.401249 0.800001 -4.358900
v -16.100248 2.750001 -3.250000
v -11.401249 0.800001 4.358900
v -11.401249 0.800001 4.930400
v -17.294048 1.943002 4.930399
v -17.294048 1.943002 4.447800
v -8.353249 2.360939 -3.139062
v -15.109650 1.943002 4.930400
v -8.353249 2.639063 -2.860938
v -17.294048 5.473601 4.930399
v -8.353249 2.360939 -2.860938
v -17.294048 3.213002 4.930399
v -8.353249 2.639063 -3.139062
v -15.109650 3.213001 4.930400
v -8.658049 2.750001 -3.250000
v -11.401249 5.473601 4.930400
v -8.658049 2.750001 -2.750000
v -15.109650 1.943002 4.447800
v -17.294048 4.991002 4.447800
v -8.658049 2.250001 -3.250000
v -15.109650 3.213001 4.447800
v -8.658049 2.250001 -2.750000
v -17.294048 3.213002 4.447800
v -13.280849 4.991001 4.447800
v -11.401249 1.282601 -4.358900
v -11.401249 2.250001 -3.825500
v -11.401249 1.282601 -3.825500
v -8.353249 2.360939 -1.139062
v -11.401249 2.750001 -3.825500
v -8.353249 2.639063 -0.860938
v -11.401249 2.750001 -3.250000
v -8.353249 2.360939 -0.860938
v -11.401249 2.250001 -3.250000
v -8.353249 2.639063 -1.139062
v -11.401249 5.473601 -4.930400
v -8.658049 2.250001 -1.250000
v -8.658049 2.750001 -1.250000
v -11.401249 5.473601 -3.825500
v -8.658049 2.250001 -0.750000
v -11.960049 5.473601 3.825500
v -8.658049 2.750001 -0.750000
v -11.401249 5.473601 3.825500
v -11.401249 2.750001 3.825500
v -11.401249 5.473601 2.174500
v -11.960049 5.473601 2.174500
v -11.401249 2.750001 2.174500
v -8.353249 2.360939 0.860938
v -11.401249 2.250001 1.825500
v -8.353249 2.639063 1.139062
v -11.401249 2.250001 2.174500
v -11.401249 2.750001 2.750000
v -8.353249 2.360939 1.139062
v -8.353249 2.639063 0.860938
v -11.401249 2.250001 2.750000
v -8.658049 2.250001 0.750000
v -11.401249 2.750001 1.825500
v -8.658049 2.750001 0.750000
v -11.401249 2.750001 1.250000
v -8.658049 2.250001 1.250000
v -11.401249 2.250001 1.250000
v -8.658049 2.750001 1.250000
v -11.401249 5.473601 1.825500
v -11.401249 1.282601 4.358900
v -11.401249 2.250001 3.825500
v -11.401249 1.282601 3.825500
v -11.401249 2.750001 3.250000
v -8.353249 2.360939 2.860939
v -11.401249 2.250001 3.250000
v -8.353249 2.639063 3.139062
v -11.960049 5.473601 -3.825500
v -11.960049 5.473601 -1.825500
v -8.353249 2.360939 3.139062
v -11.401249 5.473601 -1.825500
v -8.353249 2.639063 2.860939
v -11.401249 5.473601 -2.174500
v -8.658049 2.250001 2.750000
v -11.960049 5.473601 -2.174500
v -8.658049 2.750001 2.750000
v -11.960049 5.473601 -0.174500
v -8.658049 2.250001 3.250000
v -11.401249 5.473601 0.174500
v -8.658049 2.750001 3.250000
v -11.401249 5.473601 -0.174500
v -11.960049 5.473601 0.174500
v -17.294048 5.473601 -4.930400
v -11.960049 5.473601 1.825500
v -11.401249 2.750001 0.174500
v -11.401249 2.250001 -0.174500
v -11.401249 2.250001 0.174500
v -11.401249 2.750001 0.750000
v -11.401249 2.250001 0.750000
v -11.401249 2.750001 -0.174500
v -11.401249 2.750001 -0.750000
v -11.401249 2.250001 -0.750000
v -11.401249 2.750001 -1.825500
v -11.401249 2.250001 -2.174500
v -11.401249 2.250001 -1.825500
v -11.401249 2.750001 -1.250000
v -11.401249 2.250001 -1.250000
v -11.401249 2.750001 -2.174500
v -11.401249 2.750001 -2.750000
v -11.401249 2.250001 -2.750000
v -15.109649 1.943002 -4.930400
v -15.109649 3.213001 -4.930400
v -17.294048 3.213002 -4.930400
v -13.280849 4.991001 -4.447800
v -15.109649 3.213001 -4.447800
v -15.109649 1.943002 -4.447800
v -17.294048 4.991002 -4.447801
v -17.294048 3.213002 -4.447801
v -13.280849 2.250001 3.250000
v -13.280849 2.250001 2.750000
v -13.280849 2.750001 3.250000
v -13.280849 2.750001 2.750000
v -13.280849 2.250001 1.250000
v -13.280849 2.750001 1.250000
v -13.280849 2.250001 0.750000
v -13.280849 2.750001 0.750000
v -13.280849 2.250001 -0.750000
v -13.280849 2.750001 -0.750000
v -13.280849 2.250001 -1.250000
v -13.280849 2.750001 -1.250000
v -13.280849 2.250001 -2.750000
v -13.280849 2.250001 -3.250000
v -13.280849 2.750001 -2.750000
v -13.280849 2.750001 -3.250000
v -11.774065 1.282601 -3.825500
v -11.774065 1.282601 3.825500
vn -0.0000 -0.0000 1.0000
vn -0.0000 -0.0000 -1.0000
vn -1.0000 -0.0000 -0.0000
vn -0.0000 1.0000 -0.0000
vn -0.0000 -1.0000 -0.0000
vn 1.0000 -0.0000 -0.0000
vn 0.9796 0.2010 -0.0000
vn 0.9331 -0.3596 -0.0000
vn -0.3420 -0.0000 0.9397
vn -0.3420 0.9397 -0.0000
vn -0.3420 -0.0000 -0.9397
vn -0.3420 -0.9397 -0.0000
vn 0.3420 0.9397 -0.0000
vn 0.3420 -0.0000 -0.9397
vn 0.3420 -0.9397 -0.0000
vn 0.3420 -0.0000 0.9397
s 0
usemtl mat0
f 1//1 3//1 5//1
f 1//1 7//1 3//1
f 9//2 11//2 13//2
f 9//2 13//2 15//2
f 3//3 17//3 18//3
f 7//3 17//3 3//3
f 19//3 20//3 17//3
f 17//3 20//3 18//3
f 21//4 23//4 25//4
f 27//4 29//4 1//4
f 23//4 17//4 29//4
f 29//4 7//4 1//4
f 17//4 7//4 29//4
f 21//4 17//4 23//4
f 11//4 31//4 33//4
f 9//4 31//4 11//4
f 35//4 37//4 38//4
f 31//4 39//4 37//4
f 9//4 39//4 31//4
f 39//4 38//4 37//4
f 40//5 18//5 42//5
f 3//5 18//5 40//5
f 44//5 42//5 18//5
f 5//5 40//5 45//5
f 5//5 3//5 40//5
f 47//5 5//5 45//5
f 50//5 5//5 47//5
f 51//5 47//5 53//5
f 51//5 50//5 47//5
f 55//5 5//5 50//5
f 57//5 58//5 15//5
f 59//5 5//5 55//5
f 60//5 58//5 57//5
f 13//5 5//5 59//5
f 13//5 57//5 15//5
f 61//5 55//5 64//5
f 61//5 59//5 55//5
f 65//5 13//5 59//5
f 67//5 13//5 65//5
f 69//5 67//5 65//5
f 71//5 67//5 69//5
f 74//5 57//5 13//5
f 74//5 13//5 67//5
f 75//5 42//5 44//5
f 60//5 77//5 78//5
f 78//5 58//5 60//5
f 58//3 79//3 39//3
f 79//3 80//3 39//3
f 39//3 15//3 58//3
f 39//3 9//3 15//3
f 82//1 79//1 58//1
f 84//1 86//1 88//1
f 78//1 88//1 82//1
f 78//1 82//1 58//1
f 90//1 84//1 88//1
f 90//1 88//1 78//1
f 80//2 92//2 39//2
f 92//2 38//2 39//2
f 93//2 95//2 97//2
f 92//2 95//2 38//2
f 93//2 98//2 95//2
f 95//2 98//2 38//2
f 44//6 99//6 75//6
f 100//6 101//6 99//6
f 103//6 105//6 107//6
f 103//6 107//6 100//6
f 103//6 99//6 44//6
f 103//6 100//6 99//6
f 109//6 112//6 103//6
f 109//6 103//6 44//6
f 114//2 116//2 117//2
f 118//1 119//1 120//1
f 122//6 124//6 71//6
f 122//6 71//6 69//6
f 120//6 125//6 128//6
f 120//6 128//6 124//6
f 130//6 120//6 124//6
f 130//6 124//6 122//6
f 132//6 122//6 134//6
f 132//6 130//6 122//6
f 136//6 118//6 120//6
f 136//6 120//6 130//6
f 137//6 78//6 77//6
f 138//6 137//6 139//6
f 117//6 78//6 137//6
f 117//6 137//6 138//6
f 140//6 138//6 142//6
f 140//6 117//6 138//6
f 90//6 78//6 117//6
f 116//6 90//6 117//6
f 144//4 112//4 109//4
f 145//4 147//4 149//4
f 145//4 149//4 151//4
f 153//4 155//4 157//4
f 158//4 155//4 153//4
f 159//4 153//4 145//4
f 159//4 151//4 144//4
f 159//4 144//4 109//4
f 159//4 145//4 151//4
f 159//4 158//4 153//4
f 119//4 118//4 136//4
f 119//4 136//4 160//4
f 90//4 116//4 114//4
f 84//4 114//4 119//4
f 84//4 160//4 158//4
f 84//4 158//4 159//4
f 84//4 119//4 160//4
f 84//4 90//4 114//4
f 160//2 136//2 130//2
f 155//1 158//1 161//1
f 162//6 163//6 61//6
f 162//6 61//6 64//6
f 161//6 164//6 165//6
f 161//6 165//6 163//6
f 166//6 161//6 163//6
f 166//6 163//6 162//6
f 167//6 162//6 168//6
f 167//6 166//6 162//6
f 157//6 155//6 161//6
f 157//6 161//6 166//6
f 153//2 157//2 166//2
f 147//1 145//1 169//1
f 170//6 171//6 51//6
f 170//6 51//6 53//6
f 169//6 172//6 173//6
f 169//6 173//6 171//6
f 174//6 169//6 171//6
f 174//6 171//6 170//6
f 175//6 170//6 176//6
f 175//6 174//6 170//6
f 149//6 147//6 169//6
f 149//6 169//6 174//6
f 151//2 149//2 174//2
f 112//1 144//1 103//1
f 18//2 177//2 44//2
f 178//2 109//2 44//2
f 178//2 44//2 177//2
f 20//2 177//2 18//2
f 159//2 178//2 179//2
f 159//2 109//2 178//2
f 180//1 181//1 21//1
f 21//1 181//1 182//1
f 182//1 17//1 21//1
f 182//1 19//1 17//1
f 181//1 183//1 184//1
f 180//1 183//1 181//1
f 93//5 183//5 98//5
f 98//5 183//5 180//5
f 86//3 93//3 97//3
f 86//3 84//3 93//3
f 184//3 183//3 179//3
f 183//3 159//3 179//3
f 84//3 159//3 93//3
f 93//3 159//3 183//3
f 185//3 35//3 38//3
f 185//3 33//3 35//3
f 186//3 11//3 33//3
f 185//3 186//3 33//3
f 187//3 185//3 38//3
f 188//3 187//3 98//3
f 187//3 38//3 98//3
f 189//3 11//3 186//3
f 190//3 186//3 188//3
f 190//3 189//3 186//3
f 190//3 188//3 98//3
f 191//3 13//3 11//3
f 189//3 191//3 11//3
f 192//3 190//3 98//3
f 193//3 5//3 13//3
f 191//3 193//3 13//3
f 1//3 5//3 193//3
f 194//3 191//3 192//3
f 194//3 193//3 191//3
f 195//3 1//3 193//3
f 197//3 195//3 196//3
f 197//3 1//3 195//3
f 197//3 27//3 1//3
f 198//3 27//3 197//3
f 199//3 197//3 196//3
f 25//3 27//3 198//3
f 21//3 25//3 198//3
f 21//3 198//3 200//3
f 180//3 200//3 199//3
f 180//3 196//3 194//3
f 180//3 192//3 98//3
f 180//3 194//3 192//3
f 180//3 199//3 196//3
f 180//3 21//3 200//3
f 19//4 177//4 20//4
f 19//4 182//4 177//4
f 182//3 178//3 177//3
f 182//3 181//3 178//3
f 181//5 179//5 178//5
f 181//5 184//5 179//5
f 170//2 53//2 47//2
f 100//1 201//1 101//1
f 144//7 105//7 103//7
f 175//7 151//7 174//7
f 105//7 151//7 175//7
f 144//7 151//7 105//7
f 47//8 45//8 201//8
f 100//8 107//8 201//8
f 176//8 47//8 201//8
f 107//8 176//8 201//8
f 176//8 170//8 47//8
f 162//2 64//2 55//2
f 171//1 50//1 51//1
f 145//7 172//7 169//7
f 167//7 153//7 166//7
f 172//7 153//7 167//7
f 145//7 153//7 172//7
f 171//8 173//8 50//8
f 168//8 55//8 50//8
f 173//8 168//8 50//8
f 168//8 162//8 55//8
f 122//2 69//2 65//2
f 163//1 59//1 61//1
f 158//7 164//7 161//7
f 132//7 160//7 130//7
f 164//7 160//7 132//7
f 158//7 160//7 164//7
f 163//8 165//8 59//8
f 134//8 65//8 59//8
f 165//8 134//8 59//8
f 134//8 122//8 65//8
f 138//2 139//2 202//2
f 124//1 67//1 71//1
f 119//7 125//7 120//7
f 140//7 114//7 117//7
f 125//7 114//7 140//7
f 119//7 114//7 125//7
f 124//8 128//8 67//8
f 202//8 74//8 67//8
f 128//8 202//8 67//8
f 142//8 202//8 128//8
f 142//8 138//8 202//8
f 29//2 27//2 40//2
f 27//2 45//2 40//2
f 27//2 201//2 45//2
f 201//5 27//5 25//5
f 201//5 25//5 99//5
f 101//5 201//5 99//5
f 23//6 29//6 42//6
f 42//6 29//6 40//6
f 99//1 25//1 75//1
f 25//1 42//1 75//1
f 25//1 23//1 42//1
f 202//5 35//5 33//5
f 137//5 202//5 139//5
f 137//5 35//5 202//5
f 202//1 33//1 74//1
f 33//1 57//1 74//1
f 33//1 31//1 57//1
f 37//2 35//2 60//2
f 35//2 77//2 60//2
f 35//2 137//2 77//2
f 31//6 37//6 57//6
f 57//6 37//6 60//6
f 79//4 82//4 92//4
f 79//4 92//4 80//4
f 88//5 86//5 97//5
f 88//5 97//5 95//5
f 82//3 88//3 95//3
f 82//3 95//3 92//3
f 2//3 4//3 6//3
f 6//3 4//3 8//3
f 2//9 6//9 10//9
f 12//9 2//9 10//9
f 12//10 14//10 4//10
f 2//10 12//10 4//10
f 14//11 16//11 8//11
f 4//11 14//11 8//11
f 6//12 8//12 16//12
f 10//12 6//12 16//12
f 10//1 185//1 187//1
f 10//1 187//1 12//1
f 14//4 12//4 187//4
f 14//4 187//4 188//4
f 16//2 14//2 188//2
f 16//2 188//2 186//2
f 16//5 186//5 10//5
f 186//5 185//5 10//5
f 22//3 24//3 26//3
f 26//3 24//3 28//3
f 22//9 26//9 30//9
f 32//9 22//9 30//9
f 32//10 34//10 24//10
f 22//10 32//10 24//10
f 34//11 36//11 28//11
f 24//11 34//11 28//11
f 26//12 28//12 36//12
f 30//12 26//12 36//12
f 30//1 189//1 190//1
f 30//1 190//1 32//1
f 34//4 32//4 190//4
f 34//4 190//4 192//4
f 36//2 34//2 192//2
f 36//2 192//2 191//2
f 36//5 191//5 30//5
f 191//5 189//5 30//5
f 41//3 43//3 46//3
f 46//3 43//3 48//3
f 41//9 46//9 49//9
f 52//9 41//9 49//9
f 52//10 54//10 43//10
f 41//10 52//10 43//10
f 54//11 56//11 48//11
f 43//11 54//11 48//11
f 46//12 48//12 56//12
f 49//12 46//12 56//12
f 49//1 193//1 194//1
f 49//1 194//1 52//1
f 54//4 52//4 194//4
f 54//4 194//4 196//4
f 56//2 54//2 196//2
f 56//2 196//2 195//2
f 56//5 195//5 49//5
f 195//5 193//5 49//5
f 62//3 63//3 66//3
f 66//3 63//3 68//3
f 66//12 68//12 70//12
f 72//12 66//12 70//12
f 62//9 66//9 72//9
f 73//9 62//9 72//9
f 73//10 76//10 63//10
f 62//10 73//10 63//10
f 76//11 70//11 68//11
f 63//11 76//11 68//11
f 70//5 198//5 72//5
f 198//5 197//5 72//5
f 72//1 197//1 199//1
f 72//1 199//1 73//1
f 76//4 73//4 199//4
f 76//4 199//4 200//4
f 70//2 76//2 200//2
f 70//2 200//2 198//2
f 81//6 83//6 85//6
f 87//6 83//6 81//6
f 83//13 87//13 89//13
f 91//13 83//13 89//13
f 87//14 81//14 94//14
f 89//14 87//14 94//14
f 96//15 94//15 81//15
f 85//15 96//15 81//15
f 91//16 96//16 85//16
f 83//16 91//16 85//16
f 176//1 91//1 175//1
f 176//1 96//1 91//1
f 107//5 94//5 176//5
f 94//5 96//5 176//5
f 107//2 105//2 89//2
f 107//2 89//2 94//2
f 105//4 175//4 91//4
f 105//4 91//4 89//4
f 102//6 104//6 106//6
f 108//6 104//6 102//6
f 108//14 102//14 110//14
f 111//14 108//14 110//14
f 113//15 110//15 102//15
f 106//15 113//15 102//15
f 115//16 113//16 106//16
f 104//16 115//16 106//16
f 104//13 108//13 111//13
f 115//13 104//13 111//13
f 172//4 167//4 115//4
f 172//4 115//4 111//4
f 168//1 115//1 167//1
f 168//1 113//1 115//1
f 173//5 110//5 168//5
f 110//5 113//5 168//5
f 173//2 172//2 111//2
f 173//2 111//2 110//2
f 121//6 123//6 126//6
f 127//6 123//6 121//6
f 127//14 121//14 129//14
f 131//14 127//14 129//14
f 133//15 129//15 121//15
f 126//15 133//15 121//15
f 135//16 133//16 126//16
f 123//16 135//16 126//16
f 123//13 127//13 131//13
f 135//13 123//13 131//13
f 164//4 132//4 135//4
f 164//4 135//4 131//4
f 134//1 135//1 132//1
f 134//1 133//1 135//1
f 165//5 129//5 134//5
f 129//5 133//5 134//5
f 165//2 164//2 131//2
f 165//2 131//2 129//2
f 141//6 143//6 146//6
f 148//6 143//6 141//6
f 148//14 141//14 150//14
f 152//14 148//14 150//14
f 154//15 150//15 141//15
f 146//15 154//15 141//15
f 156//16 154//16 146//16
f 143//16 156//16 146//16
f 143//13 148//13 152//13
f 156//13 143//13 152//13
f 125//4 140//4 156//4
f 125//4 156//4 152//4
f 142//1 156//1 140//1
f 142//1 154//1 156//1
f 128//5 150//5 142//5
f 150//5 154//5 142//5
f 128//2 125//2 152//2
f 128//2 152//2 150//2
